<svg xmlns="http://www.w3.org/2000/svg" viewBox="0 0 512 512" width="512" height="512">
  <!-- Sfondo rosso Aprilia -->
  <rect width="512" height="512" fill="#e30613" rx="80"/>
  
  <!-- Bordo interno -->
  <rect x="40" y="40" width="432" height="432" fill="none" stroke="#ffffff" stroke-width="8" rx="60"/>
  
  <!-- Lettera A stilizzata -->
  <path d="M 256 120 L 380 420 L 330 420 L 310 370 L 202 370 L 182 420 L 132 420 Z M 230 320 L 282 320 L 256 240 Z" 
        fill="#ffffff" 
        stroke="#ffffff" 
        stroke-width="4" 
        stroke-linejoin="round"/>
  
  <!-- Dettaglio racing (linee velocità) -->
  <line x1="100" y1="180" x2="160" y2="180" stroke="#ffffff" stroke-width="6" stroke-linecap="round" opacity="0.8"/>
  <line x1="100" y1="210" x2="140" y2="210" stroke="#ffffff" stroke-width="6" stroke-linecap="round" opacity="0.6"/>
  
  <line x1="352" y1="180" x2="412" y2="180" stroke="#ffffff" stroke-width="6" stroke-linecap="round" opacity="0.8"/>
  <line x1="372" y1="210" x2="412" y2="210" stroke="#ffffff" stroke-width="6" stroke-linecap="round" opacity="0.6"/>
  
  <!-- Stella racing -->
  <path d="M 256 70 L 266 95 L 293 95 L 271 111 L 281 136 L 256 120 L 231 136 L 241 111 L 219 95 L 246 95 Z" 
        fill="#ffffff" 
        opacity="0.9"/>
</svg>